<svg width="36" height="37" viewBox="0 0 36 37" fill="none" xmlns="http://www.w3.org/2000/svg">
<g clip-path="url(#clip0_164_14026)">
<path d="M19.44 13.5946V14.9198L6.74036 19.0635V23.0716L8.50829 23.5549V30.1706H10.9433C11.6353 30.1706 12.1963 29.6096 12.1963 28.9176V24.5629L19.44 26.5431V27.8683H22.5143V13.5946H19.44Z" fill="#2FDF84"/>
<path d="M33.4191 2.50256H2.58089C1.15777 2.50256 0 3.66279 0 5.08894V32.3575C0 33.5374 0.95632 34.4974 2.13166 34.4974H33.8683C35.0437 34.4974 35.9999 33.5374 35.9999 32.3575V5.08894C36 3.66279 34.8422 2.50256 33.4191 2.50256ZM1.40625 5.08894C1.40625 4.43827 1.93317 3.90888 2.58089 3.90888H33.4191C34.0668 3.90888 34.5938 4.43827 34.5938 5.08894V9.26775H1.40625V5.08894ZM34.5938 32.3574C34.5938 32.762 34.2683 33.0911 33.8683 33.0911H2.13166C1.73166 33.0911 1.40625 32.762 1.40625 32.3574V10.6739H34.5938V32.3574Z" fill="#00B871"/>
<path d="M23.1308 5.88519H22.1863C21.7979 5.88519 21.4832 6.19998 21.4832 6.58832C21.4832 6.97665 21.7979 7.29144 22.1863 7.29144H23.1308C23.5191 7.29144 23.8339 6.97665 23.8339 6.58832C23.8339 6.19998 23.5191 5.88519 23.1308 5.88519Z" fill="#00B871"/>
<path d="M27.4996 5.88519H26.5551C26.1667 5.88519 25.8519 6.19998 25.8519 6.58832C25.8519 6.97665 26.1667 7.29144 26.5551 7.29144H27.4996C27.8879 7.29144 28.2027 6.97665 28.2027 6.58832C28.2027 6.19998 27.8879 5.88519 27.4996 5.88519Z" fill="#00B871"/>
<path d="M31.8682 5.88519H30.9237C30.5354 5.88519 30.2206 6.19998 30.2206 6.58832C30.2206 6.97665 30.5354 7.29144 30.9237 7.29144H31.8682C32.2566 7.29144 32.5713 6.97665 32.5713 6.58832C32.5713 6.19998 32.2566 5.88519 31.8682 5.88519Z" fill="#00B871"/>
<path d="M11.8278 5.88519H5.01111C4.62277 5.88519 4.30798 6.19998 4.30798 6.58832C4.30798 6.97665 4.62277 7.29144 5.01111 7.29144H11.8278C12.2162 7.29144 12.531 6.97665 12.531 6.58832C12.531 6.19998 12.2162 5.88519 11.8278 5.88519Z" fill="#00B871"/>
<path d="M27.8533 20.7314C27.8533 21.6517 27.4961 22.5158 26.8474 23.1644C26.5729 23.4389 26.5728 23.8842 26.8474 24.1587C26.9848 24.296 27.1647 24.3647 27.3446 24.3647C27.5245 24.3647 27.7045 24.296 27.8418 24.1587C28.7561 23.2445 29.2596 22.0273 29.2596 20.7313C29.2596 19.4354 28.7561 18.2182 27.8419 17.3039C27.5673 17.0293 27.1221 17.0293 26.8475 17.3039C26.5729 17.5785 26.5729 18.0237 26.8475 18.2983C27.4961 18.947 27.8533 19.8112 27.8533 20.7314Z" fill="#00B871"/>
<path d="M24.6598 21.9712C24.7971 22.1085 24.977 22.1772 25.157 22.1772C25.3369 22.1772 25.5169 22.1085 25.6541 21.9712C26.3377 21.2876 26.3377 20.1752 25.6541 19.4916C25.3796 19.217 24.9344 19.217 24.6598 19.4916C24.3852 19.7661 24.3852 20.2114 24.6598 20.486C24.7482 20.5745 24.7615 20.6777 24.7615 20.7314C24.7615 20.7851 24.7482 20.8883 24.6598 20.9768C24.3852 21.2514 24.3852 21.6966 24.6598 21.9712Z" fill="#00B871"/>
</g>
<defs>
<clipPath id="clip0_164_14026">
<rect width="36" height="36" fill="white" transform="translate(0 0.5)"/>
</clipPath>
</defs>
</svg>
