<svg width="11" height="8" viewBox="0 0 11 8" fill="none" xmlns="http://www.w3.org/2000/svg">
<path d="M10.6186 1.17C10.4312 0.983753 10.1778 0.879211 9.9136 0.879211C9.64942 0.879211 9.39596 0.983753 9.2086 1.17L5.6186 4.71L2.0786 1.17C1.89124 0.983753 1.63779 0.879211 1.3736 0.879211C1.10942 0.879211 0.855963 0.983753 0.668601 1.17C0.574873 1.26297 0.500478 1.37357 0.449709 1.49543C0.398941 1.61729 0.372803 1.74799 0.372803 1.88C0.372803 2.01202 0.398941 2.14272 0.449709 2.26458C0.500478 2.38644 0.574873 2.49704 0.668601 2.59L4.9086 6.83C5.00156 6.92373 5.11216 6.99813 5.23402 7.04889C5.35588 7.09966 5.48659 7.1258 5.6186 7.1258C5.75061 7.1258 5.88132 7.09966 6.00318 7.04889C6.12504 6.99813 6.23564 6.92373 6.3286 6.83L10.6186 2.59C10.7123 2.49704 10.7867 2.38644 10.8375 2.26458C10.8883 2.14272 10.9144 2.01202 10.9144 1.88C10.9144 1.74799 10.8883 1.61729 10.8375 1.49543C10.7867 1.37357 10.7123 1.26297 10.6186 1.17Z" fill="#00B871"/>
</svg>
