<svg width="18" height="19" viewBox="0 0 18 19" fill="none" xmlns="http://www.w3.org/2000/svg">
<path d="M13.44 9.21502C13.4043 9.12295 13.3508 9.03885 13.2825 8.96752L9.5325 5.21752C9.46257 5.14759 9.37955 5.09212 9.28819 5.05427C9.19682 5.01643 9.09889 4.99695 9 4.99695C8.80027 4.99695 8.60873 5.07629 8.4675 5.21752C8.39757 5.28745 8.3421 5.37046 8.30426 5.46183C8.26641 5.5532 8.24693 5.65112 8.24693 5.75002C8.24693 5.94974 8.32627 6.14129 8.4675 6.28252L10.9425 8.75002H5.25C5.05109 8.75002 4.86032 8.82904 4.71967 8.96969C4.57902 9.11034 4.5 9.30111 4.5 9.50002C4.5 9.69893 4.57902 9.8897 4.71967 10.0303C4.86032 10.171 5.05109 10.25 5.25 10.25H10.9425L8.4675 12.7175C8.3972 12.7872 8.34141 12.8702 8.30333 12.9616C8.26526 13.053 8.24565 13.151 8.24565 13.25C8.24565 13.349 8.26526 13.4471 8.30333 13.5385C8.34141 13.6298 8.3972 13.7128 8.4675 13.7825C8.53722 13.8528 8.62017 13.9086 8.71157 13.9467C8.80296 13.9848 8.90099 14.0044 9 14.0044C9.09901 14.0044 9.19704 13.9848 9.28843 13.9467C9.37983 13.9086 9.46278 13.8528 9.5325 13.7825L13.2825 10.0325C13.3508 9.96119 13.4043 9.87708 13.44 9.78502C13.515 9.60242 13.515 9.39761 13.44 9.21502Z" fill="#00B871"/>
</svg>
