<svg width="36" height="31" viewBox="0 0 36 31" fill="none" xmlns="http://www.w3.org/2000/svg">
<path d="M18.4254 3.61591H17.5902C17.2019 3.61591 16.8871 3.93069 16.8871 4.31903C16.8871 4.70737 17.2019 5.02216 17.5902 5.02216H18.4254C18.8137 5.02216 19.1285 4.70737 19.1285 4.31903C19.1285 3.93069 18.8137 3.61591 18.4254 3.61591Z" fill="#00B871"/>
<path d="M22.2883 3.61591H21.4531C21.0648 3.61591 20.75 3.93069 20.75 4.31903C20.75 4.70737 21.0648 5.02216 21.4531 5.02216H22.2883C22.6766 5.02216 22.9914 4.70737 22.9914 4.31903C22.9914 3.93069 22.6766 3.61591 22.2883 3.61591Z" fill="#00B871"/>
<path d="M26.1511 3.61591H25.3159C24.9276 3.61591 24.6128 3.93069 24.6128 4.31903C24.6128 4.70737 24.9276 5.02216 25.3159 5.02216H26.1511C26.5394 5.02216 26.8542 4.70737 26.8542 4.31903C26.8542 3.93069 26.5394 3.61591 26.1511 3.61591Z" fill="#00B871"/>
<path d="M10.5398 3.61591H4.51209C4.12375 3.61591 3.80896 3.93069 3.80896 4.31903C3.80896 4.70737 4.12375 5.02216 4.51209 5.02216H10.5398C10.9281 5.02216 11.2429 4.70737 11.2429 4.31903C11.2429 3.93069 10.9281 3.61591 10.5398 3.61591Z" fill="#00B871"/>
<path d="M10.1132 11.1487C8.49273 11.1487 7.17437 12.4706 7.17437 14.0956V14.3171H5.29956C4.91122 14.3171 4.59644 14.6319 4.59644 15.0202V23.0059C4.59644 24.327 5.67123 25.4017 6.99226 25.4017H13.2502C14.5713 25.4017 15.646 24.3269 15.646 23.0059V15.0202C15.646 14.6319 15.3313 14.3171 14.9429 14.3171H13.052V14.0956C13.0521 12.4707 11.7337 11.1487 10.1132 11.1487ZM8.58069 14.0956C8.58069 13.2461 9.26821 12.5549 10.1133 12.5549C10.9584 12.5549 11.6458 13.2461 11.6458 14.0956V14.3171H8.58069V14.0956ZM14.2399 15.7234V23.0059C14.2399 23.5516 13.7959 23.9955 13.2503 23.9955H6.99226C6.44657 23.9955 6.00269 23.5515 6.00269 23.0059V15.7234H7.17444V17.2055C7.17444 17.5938 7.48923 17.9086 7.87757 17.9086C8.2659 17.9086 8.58069 17.5938 8.58069 17.2055V15.7234H11.6458V17.2055C11.6458 17.5938 11.9606 17.9086 12.3489 17.9086C12.7373 17.9086 13.0521 17.5938 13.0521 17.2055V15.7234H14.2399Z" fill="#00B871"/>
<path d="M26.2898 28.4614H2.36348C1.83565 28.4614 1.40625 28.0342 1.40625 27.509V8.30503H28.4799V15.001H29.8861V2.69177C29.8861 1.39113 28.8259 0.333069 27.5226 0.333069H2.36348C1.06024 0.332999 0 1.39113 0 2.69177V27.509C0 28.8096 1.06024 29.8677 2.36348 29.8677H28.5293C27.8241 29.5251 27.027 29.0626 26.2898 28.4614ZM1.40625 2.69177C1.40625 2.16654 1.83565 1.73932 2.36348 1.73932H27.5226C28.0505 1.73932 28.4799 2.16661 28.4799 2.69177V6.89878H1.40625V2.69177Z" fill="#00B871"/>
<path d="M34.174 16.7909C32.4239 16.7909 30.9144 15.7713 30.2121 14.2978H28.1538C27.4515 15.7713 25.942 16.7909 24.1919 16.7909C23.5402 16.7909 22.9219 16.6494 22.366 16.3959V23.5998C22.366 28.8688 29.1829 30.6669 29.1829 30.6669C29.1829 30.6669 35.9999 28.8688 35.9999 23.5998V16.3959C35.444 16.6494 34.8256 16.7909 34.174 16.7909Z" fill="#2FDF84"/>
<path d="M28.9732 24.5482C28.788 24.5482 28.6097 24.4751 28.4777 24.3439L27.2994 23.1732C27.0239 22.8995 27.0224 22.4544 27.2961 22.1789C27.5698 21.9034 28.015 21.9019 28.2905 22.1756L28.9279 22.8089L30.7927 20.6001C31.0432 20.3033 31.4868 20.2658 31.7836 20.5164C32.0803 20.7669 32.1177 21.2105 31.8672 21.5073L29.5105 24.2987C29.3838 24.4488 29.2001 24.539 29.004 24.5476C28.9938 24.548 28.9835 24.5482 28.9732 24.5482Z" fill="#00B871"/>
</svg>
