<svg width="30" height="37" viewBox="0 0 30 37" fill="none" xmlns="http://www.w3.org/2000/svg">
<path d="M17.1734 21.7213C20.026 18.8688 20.026 14.2438 17.1734 11.3912C14.3208 8.53862 9.69588 8.53862 6.84329 11.3912C3.9907 14.2438 3.9907 18.8688 6.84329 21.7213C9.69588 24.5739 14.3208 24.5739 17.1734 21.7213Z" fill="#2FDF84"/>
<path d="M12.8735 15.9773C12.7864 15.9465 12.703 15.9169 12.6231 15.8882V14.0271C12.8009 14.0971 12.9257 14.195 12.9917 14.2891C13.2148 14.6069 13.6533 14.6839 13.9712 14.4607C14.289 14.2376 14.3659 13.7991 14.1428 13.4812C13.8454 13.0575 13.3143 12.7015 12.6231 12.5731V12.5035C12.6231 12.1152 12.3083 11.8004 11.92 11.8004C11.5317 11.8004 11.2169 12.1152 11.2169 12.5035V12.6241C11.1388 12.6427 11.0597 12.664 10.9797 12.688C10.1627 12.9342 9.54598 13.7269 9.4801 14.6159C9.41485 15.496 9.88229 16.2601 10.7304 16.66C10.8396 16.7115 11.0062 16.7812 11.2169 16.864V19.1266C10.9458 19.0324 10.7019 18.8878 10.5381 18.6843C10.2943 18.3819 9.85177 18.3343 9.54943 18.5778C9.24701 18.8214 9.19934 19.264 9.4429 19.5665C9.89867 20.1322 10.5634 20.4425 11.2169 20.5814V20.609C11.2169 20.9974 11.5317 21.3121 11.92 21.3121C12.3001 21.3121 12.6098 21.0104 12.6226 20.6334C13.7753 20.4598 14.5885 19.7156 14.7183 18.6938C14.8661 17.5306 14.1075 16.4135 12.8735 15.9773ZM10.8825 14.7199C10.9004 14.4783 11.0346 14.2469 11.2169 14.1182V15.3272C10.976 15.1796 10.8635 14.9757 10.8825 14.7199ZM13.3233 18.5165C13.2808 18.8512 13.0309 19.091 12.6231 19.2005V17.3967C13.165 17.6735 13.3696 18.1523 13.3233 18.5165Z" fill="#00B871"/>
<path d="M12.4802 32.2872H11.5427C11.1545 32.2872 10.8396 32.602 10.8396 32.9903C10.8396 33.3786 11.1545 33.6934 11.5427 33.6934H12.4802C12.8685 33.6934 13.1833 33.3786 13.1833 32.9903C13.1833 32.602 12.8685 32.2872 12.4802 32.2872Z" fill="#00B871"/>
<path d="M28.4372 23.0968H25.9248V22.6538C25.9248 20.9775 24.7384 19.5739 23.1634 19.2431V3.88224C23.1634 2.01727 21.6405 0.5 19.7685 0.5H4.25459C2.38259 0.5 0.859619 2.01727 0.859619 3.88224V33.1114C0.859619 34.9799 2.3797 36.5 4.24819 36.5H26.339C27.8837 36.5 29.1404 35.2433 29.1404 33.6986V23.7999C29.1403 23.4116 28.8255 23.0968 28.4372 23.0968ZM24.5186 22.6538V23.0968H20.3823V22.6538C20.3823 21.5078 21.3101 20.5756 22.4505 20.5756C23.5909 20.5756 24.5186 21.5078 24.5186 22.6538ZM16.4836 23.0968C16.0954 23.0968 15.7805 23.4116 15.7805 23.7999V29.4806H2.26587V6.44457H21.7573V19.2391C20.1725 19.5621 18.9761 20.9705 18.9761 22.6538V23.0968H16.4836ZM4.25459 1.90625H19.7685C20.8651 1.90625 21.7573 2.79261 21.7573 3.88224V5.03832H2.26587V3.88224C2.26587 2.79261 3.15799 1.90625 4.25459 1.90625ZM2.26587 33.1114V30.8868H15.7805V33.6986C15.7805 34.2062 15.9162 34.6827 16.1532 35.0938H4.24819C3.15511 35.0938 2.26587 34.2045 2.26587 33.1114ZM27.734 33.6986C27.734 34.4678 27.1082 35.0938 26.3389 35.0938H18.5818C17.8126 35.0938 17.1867 34.4679 17.1867 33.6986V24.5031H18.976V26.5086C18.976 26.8969 19.2908 27.2117 19.6791 27.2117C20.0674 27.2117 20.3822 26.8969 20.3822 26.5086V24.5031H24.5185V26.5086C24.5185 26.8969 24.8333 27.2117 25.2216 27.2117C25.6099 27.2117 25.9248 26.8969 25.9248 26.5086V24.5031H27.734V33.6986H27.734Z" fill="#00B871"/>
</svg>
