<svg width="86" height="72" viewBox="0 0 86 72" fill="none" xmlns="http://www.w3.org/2000/svg">
<path d="M26.536 0.568359C8.928 13.2164 0 28.5924 0 46.6964V47.6884C0 62.3204 7.936 71.9924 19.592 71.9924C29.264 71.9924 36.952 64.3044 36.952 54.3844C36.952 44.4644 30.256 38.0164 20.584 38.0164C18.6 38.0164 16.616 38.5124 14.632 39.2564C16.12 29.0884 23.312 19.1684 36.208 9.49636L26.536 0.568359ZM74.896 0.568359C57.288 13.2164 48.36 28.5924 48.36 46.6964V47.6884C48.36 62.3204 56.296 71.9924 67.952 71.9924C77.624 71.9924 85.312 64.3044 85.312 54.3844C85.312 44.4644 78.616 38.0164 68.944 38.0164C66.96 38.0164 64.976 38.5124 62.992 39.2564C64.48 29.0884 71.672 19.1684 84.568 9.49636L74.896 0.568359Z" fill="#4F4F4F"/>
</svg>
