<svg width="25" height="24" viewBox="0 0 25 24" fill="none" xmlns="http://www.w3.org/2000/svg">
<path d="M18.0387 11.62C17.9911 11.4973 17.9197 11.3851 17.8287 11.29L12.8287 6.29C12.7354 6.19676 12.6247 6.1228 12.5029 6.07234C12.3811 6.02188 12.2505 5.99591 12.1187 5.99591C11.8524 5.99591 11.597 6.1017 11.4087 6.29C11.3154 6.38324 11.2415 6.49393 11.191 6.61575C11.1405 6.73758 11.1146 6.86814 11.1146 7C11.1146 7.2663 11.2203 7.5217 11.4087 7.71L14.7087 11H7.11865C6.85344 11 6.59908 11.1054 6.41155 11.2929C6.22401 11.4804 6.11865 11.7348 6.11865 12C6.11865 12.2652 6.22401 12.5196 6.41155 12.7071C6.59908 12.8946 6.85344 13 7.11865 13H14.7087L11.4087 16.29C11.3149 16.383 11.2405 16.4936 11.1898 16.6154C11.139 16.7373 11.1129 16.868 11.1129 17C11.1129 17.132 11.139 17.2627 11.1898 17.3846C11.2405 17.5064 11.3149 17.617 11.4087 17.71C11.5016 17.8037 11.6122 17.8781 11.7341 17.9289C11.8559 17.9797 11.9866 18.0058 12.1187 18.0058C12.2507 18.0058 12.3814 17.9797 12.5032 17.9289C12.6251 17.8781 12.7357 17.8037 12.8287 17.71L17.8287 12.71C17.9197 12.6149 17.9911 12.5028 18.0387 12.38C18.1387 12.1365 18.1387 11.8635 18.0387 11.62Z" fill="#F4FBF7"/>
</svg>
